<svg width="51" height="61" viewBox="0 0 51 61" fill="none" xmlns="http://www.w3.org/2000/svg">
<path fill-rule="evenodd" clip-rule="evenodd" d="M44.2923 1.77724C45.6188 1.77569 46.916 2.1707 48.0197 2.9123C49.1234 3.65389 49.9841 4.70875 50.4928 5.9434C51.0015 7.17806 51.1354 8.53704 50.8776 9.84841C50.6197 11.1598 49.9817 12.3646 49.0442 13.3105C48.1068 14.2563 46.912 14.9007 45.6111 15.1621C44.3101 15.4234 42.9615 15.2901 41.7358 14.7788C40.5101 14.2676 39.4624 13.4015 38.7252 12.29C37.9881 11.1786 37.5946 9.87173 37.5946 8.53487C37.5967 6.74462 38.3027 5.02818 39.5581 3.76155C40.8135 2.49493 42.5159 1.78138 44.2923 1.77724V1.77724Z" fill="#EFAC1E"/>
<path d="M18.3634 39.4573C21.215 36.748 26.1333 32.222 29.2413 29.0977C30.2203 28.0328 30.873 27.0462 30.873 25.9656C30.873 23.914 28.5886 21.2673 26.4674 21.2673C25.0766 21.2673 23.8567 22.0895 22.5825 23.4833L8.81418 37.6563C8.89965 26.6938 9.06281 15.371 9.06281 4.43983C9.06281 1.39381 7.50883 0 4.5718 0C2.20975 0 0.00309489 1.3155 0.00309489 4.18926C0.0885639 5.91977 0.0885639 8.88749 0.0885639 10.3596C0.0885639 22.9352 0.166263 34.117 0.166263 46.442L0.00309489 55.4861C-0.0746042 58.6183 1.30844 60.3331 4.40864 60.3331C7.672 60.3331 8.73648 58.5321 8.73648 55.6349L8.81418 47.5774C9.55232 46.8414 11.5103 44.9464 12.3262 44.2104L23.4138 57.7883C24.6415 59.3543 25.7837 60.3331 27.2522 60.3331C29.7774 60.3331 31.9141 57.8744 31.9141 55.9794C31.8718 54.9897 31.4645 54.0515 30.772 53.3484L18.3634 39.4573Z" fill="#4C4C4E"/>
<path d="M39.5449 26.0591V56.4723C39.5449 59.1033 41.4252 60.3327 43.9505 60.3327C46.8875 60.3327 48.6124 58.9389 48.5192 55.9007V45.6194C48.4337 39.4569 48.5969 33.1299 48.5192 26.9596C48.5192 22.9348 46.5612 21.9481 43.8572 21.9481C43.3015 21.9126 42.7444 21.9929 42.2207 22.1838C41.6971 22.3747 41.218 22.6723 40.8135 23.058C40.4089 23.4437 40.0875 23.9092 39.8693 24.4255C39.651 24.9418 39.5406 25.4979 39.5449 26.0591Z" fill="#4C4C4E"/>
<path d="M6.80251 46.5281C6.40797 46.5303 6.02192 46.4127 5.69458 46.1908C5.36723 45.9688 5.11373 45.6527 4.96706 45.2836C4.82038 44.9145 4.78732 44.5094 4.87216 44.1211C4.957 43.7328 5.15583 43.3792 5.44277 43.1063L42.7772 7.28225C43.1584 6.91986 43.6669 6.72493 44.1908 6.74035C44.7146 6.75577 45.2109 6.98027 45.5705 7.36447C45.9301 7.74867 46.1235 8.26109 46.1082 8.78901C46.0929 9.31693 45.8701 9.8171 45.4889 10.1795L8.19332 45.9957C7.81729 46.3507 7.31757 46.542 6.80251 46.5281V46.5281Z" fill="#EFAC1E"/>
</svg>
